
<svg width="353px" height="526px" viewBox="0 0 353 526" version="1.1" xmlns="http://www.w3.org/2000/svg" xmlns:xlink="http://www.w3.org/1999/xlink">
    <g id="Page-1" stroke="none" stroke-width="1" fill="none" fill-rule="evenodd">
        <g id="Projects" transform="translate(-829.000000, -183.000000)">
            <g id="iPhone-X" filter="url(#filter-1)" transform="translate(881.000000, 201.000000)">
                <g id="Buttons">
                    <use fill="black" fill-opacity="1" filter="url(#filter-4)" xlink:href="#path-3"></use>
                    <path stroke-opacity="0.04" stroke="#000000" stroke-width="0.873926176" d="M7.2681527,147.391934 C7.95191551,147.391934 8.57094655,147.669083 9.01903689,148.117174 C9.46712723,148.565264 9.74427687,149.184295 9.74427687,149.868058 L9.74427687,149.868058 L9.74427687,181.3294 C9.74427687,182.013163 9.46712723,182.632194 9.01903689,183.080284 C8.57094655,183.528375 7.95191551,183.805524 7.2681527,183.805524 L7.2681527,183.805524 L2.60721309,183.805524 C1.92345029,183.805524 1.30441924,183.528375 0.856328904,183.080284 C0.408238564,182.632194 0.131088926,182.013163 0.131088926,181.3294 L0.131088926,181.3294 L0.131088926,149.868058 C0.131088926,149.184295 0.408238564,148.565264 0.856328904,148.117174 C1.30441924,147.669083 1.92345029,147.391934 2.60721309,147.391934 L2.60721309,147.391934 Z M246.141308,101.947772 C246.82507,101.947772 247.444101,102.224922 247.892192,102.673012 C248.340282,103.121103 248.617432,103.740134 248.617432,104.423897 L248.617432,104.423897 L248.617432,145.789736 C248.617432,146.473498 248.340282,147.092529 247.892192,147.54062 C247.444101,147.98871 246.82507,148.26586 246.141308,148.26586 L246.141308,148.26586 L241.480368,148.26586 C240.796605,148.26586 240.177574,147.98871 239.729484,147.54062 C239.281393,147.092529 239.004244,146.473498 239.004244,145.789736 L239.004244,145.789736 L239.004244,104.423897 C239.004244,103.740134 239.281393,103.121103 239.729484,102.673012 C240.177574,102.224922 240.796605,101.947772 241.480368,101.947772 L241.480368,101.947772 Z M7.2681527,101.947772 C7.95191551,101.947772 8.57094655,102.224922 9.01903689,102.673012 C9.46712723,103.121103 9.74427687,103.740134 9.74427687,104.423897 L9.74427687,104.423897 L9.74427687,135.885239 C9.74427687,136.569002 9.46712723,137.188033 9.01903689,137.636123 C8.57094655,138.084213 7.95191551,138.361363 7.2681527,138.361363 L7.2681527,138.361363 L2.60721309,138.361363 C1.92345029,138.361363 1.30441924,138.084213 0.856328904,137.636123 C0.408238564,137.188033 0.131088926,136.569002 0.131088926,135.885239 L0.131088926,135.885239 L0.131088926,104.423897 C0.131088926,103.740134 0.408238564,103.121103 0.856328904,102.673012 C1.30441924,102.224922 1.92345029,101.947772 2.60721309,101.947772 L2.60721309,101.947772 Z M7.2681527,64.9515643 C7.95191551,64.9515643 8.57094655,65.2287139 9.01903689,65.6768043 C9.46712723,66.1248946 9.74427687,66.7439257 9.74427687,67.4276885 L9.74427687,67.4276885 L9.74427687,83.1583596 C9.74427687,83.8421224 9.46712723,84.4611535 9.01903689,84.9092438 C8.57094655,85.3573342 7.95191551,85.6344838 7.2681527,85.6344838 L7.2681527,85.6344838 L2.60721309,85.6344838 C1.92345029,85.6344838 1.30441924,85.3573342 0.856328904,84.9092438 C0.408238564,84.4611535 0.131088926,83.8421224 0.131088926,83.1583596 L0.131088926,83.1583596 L0.131088926,67.4276885 C0.131088926,66.7439257 0.408238564,66.1248946 0.856328904,65.6768043 C1.30441924,65.2287139 1.92345029,64.9515643 2.60721309,64.9515643 L2.60721309,64.9515643 Z" fill="url(#linearGradient-2)" fill-rule="evenodd"></path>
                </g>
                <g id="Group-2" transform="translate(9.674877, 4.031199)">
                    <rect id="Rectangle" stroke="#979797" stroke-width="0.806239737" fill="url(#linearGradient-5)" x="0.403119869" y="0.403119869" width="228.972085" height="481.325123" rx="21.7684729"></rect>
                    <g id="notebook-copy" transform="translate(45.955665, 241.871921)" fill-rule="nonzero">
                        <path d="M92.0532711,126.606611 L0,126.606611 L0,0.688079405 L92.0532711,0.688079405 C96.0621168,0.688079405 99.3127941,3.9379336 99.3127941,7.94576423 L99.3127941,119.348926 C99.3127941,123.356756 96.0621168,126.606611 92.0532711,126.606611 Z" id="Path" fill="#556080"></path>
                        <rect id="Rectangle" fill="#D75A4A" x="72.9364169" y="0.688079405" width="11.9267097" height="125.918531"></rect>
                        <g id="Group" transform="translate(0.229360, 41.972844)" fill="#424A60">
                            <rect id="Rectangle" x="0.0467107539" y="0.024306272" width="72.9351894" height="43.7512897"></rect>
                            <rect id="Rectangle" x="85.1377651" y="0.024306272" width="14.5870379" height="43.7512897"></rect>
                        </g>
                        <polygon id="Path" fill="#EBBA16" points="25.2295782 138.074601 17.8900645 133.303917 10.5505509 138.074601 10.5505509 126.147891 25.2295782 126.147891"></polygon>
                        <rect id="Rectangle" fill="#E0E1E2" x="116.514779" y="17.4313449" width="8.94503227" height="8.94503227"></rect>
                        <path d="M125.459812,0.458719603 L120.953752,0.458719603 C120.341017,0.458719603 119.757353,0.596335484 119.225124,0.842078129 C118.959009,0.964949451 118.706312,1.11485246 118.471505,1.29178717 C117.290761,2.16908841 116.514779,3.65337398 116.514779,5.3367111 L116.514779,17.6607047 L125.459812,17.6607047 L125.459812,0.458719603 Z" id="Path" fill="#D75A4A"></path>
                        <path d="M131.506195,1.16147804 L131.506195,1.16147804 C132.26033,1.16147804 132.978685,1.31560782 133.633736,1.59083958 C132.978685,1.31560782 132.26033,1.16147804 131.506195,1.16147804 Z" id="Path" fill="#D75A4A"></path>
                        <rect id="Rectangle" fill="#DB7B1B" x="126.377251" y="27.5231762" width="8.94503227" height="91.2852011"></rect>
                        <rect id="Rectangle" fill="#C4C4C4" x="126.377251" y="17.4313449" width="8.94503227" height="8.94503227"></rect>
                        <path d="M136.067702,5.96335484 L136.067702,5.96335484 C136.067702,4.24524649 135.112648,2.73030131 133.659424,1.83487841 C135.112648,2.73030131 136.067702,4.24524649 136.067702,5.96335484 Z" id="Path" fill="#D75A4A"></path>
                        <path d="M135.322283,17.6607047 L135.322283,5.3367111 C135.322283,3.65337398 134.546301,2.16908841 133.365557,1.29178717 C133.13075,1.11730989 132.875817,0.964949451 132.611938,0.842078129 C132.079709,0.596335484 131.496045,0.458719603 130.883311,0.458719603 L126.377251,0.458719603 L126.377251,17.6607047 L135.322283,17.6607047 Z" id="Path" fill="#B74C44"></path>
                        <polygon id="Path" fill="#EBD6BD" points="136.239722 119.725816 116.514779 119.725816 126.377251 136.927802"></polygon>
                        <path d="M123.166214,140.735174 C123.166214,142.054268 124.345238,143.120516 125.803851,143.120516 C127.262465,143.120516 128.441489,142.054268 128.441489,140.735174 L128.441489,131.193807 L123.166214,131.193807 L123.166214,140.735174 Z" id="Path" fill="#4C4C4C"></path>
                        <rect id="Rectangle" fill="#ED8A19" x="116.514779" y="27.5231762" width="8.94503227" height="91.2852011"></rect>
                    </g>
                    <text id="My-Nephrotic-Noteboo" font-family="KGSecondChancesSolid, KG Second Chances Solid" font-size="23.4031425" font-style="condensed" font-weight="normal" fill="#FFFFFF">
                        <tspan x="45.1494253" y="145.935961">My</tspan>
                        <tspan x="45.1494253" y="175.935961">Nephrotic</tspan>
                        <tspan x="45.1494253" y="205.935961">Notebook.</tspan>
                    </text>
                </g>
                <path d="M205.884114,-0.30159021 C219.075718,-0.30159021 223.849077,1.09767175 228.668984,3.67538628 C233.545029,6.28312387 237.371778,10.1098728 239.979516,14.9859182 C240.135741,15.2780337 240.287637,15.5699783 240.435156,15.8636363 L240.653145,16.3056439 C242.764882,20.6705328 243.918311,25.6134949 243.955561,37.1865807 L243.956492,37.7707881 L243.956492,453.063851 C243.956492,466.255455 242.55723,471.028814 239.979516,475.848721 C237.371778,480.724767 233.545029,484.551516 228.668984,487.159253 C223.306255,489.861946 218.416511,491.095519 206.486515,491.135237 L205.884114,491.13623 L42.8644068,491.13623 C29.6728029,491.13623 24.899444,489.736968 20.0795369,487.159253 C15.2034915,484.551516 11.3767426,480.724767 8.76900502,475.848721 C6.26922993,471.174548 4.8777887,466.543994 4.7958681,454.239742 L4.79298796,453.657331 L4.79299145,37.176938 C4.83470095,24.4345262 6.23034678,19.7327964 8.76900502,14.9859182 C11.3767426,10.1098728 15.2034915,6.28312387 20.0795369,3.67538628 C24.7537099,1.17561118 29.3842645,-0.21583004 41.6885134,-0.29775064 L42.2709249,-0.300630779 L205.884114,-0.30159021 Z M63.3525685,9.60187518 L39.894762,9.60290646 L39.4269207,9.60736912 C33.0477468,9.72916449 27.2770387,12.336447 23.0428888,16.5011354 C18.6963908,20.7763289 15.972635,26.6929628 15.8617601,33.6416483 L15.8617601,33.6416483 L15.8617601,457.198763 L15.8662228,457.666602 C15.9880181,464.045746 18.5953006,469.816454 22.759989,474.050604 C27.0351825,478.397102 32.9518165,481.120858 39.9005019,481.231733 L39.9005019,481.231733 L208.853791,481.231733 L209.32163,481.22727 C215.700774,481.105475 221.471482,478.498192 225.705632,474.333504 C230.05213,470.058311 232.775886,464.141677 232.886761,457.192991 L232.886761,457.192991 L232.886761,33.6358763 L232.882409,33.1738955 C232.760748,26.7207991 230.095637,20.8899703 225.847667,16.6420004 C221.498555,12.2928882 215.490312,9.60290646 208.853791,9.60290646 L208.853791,9.60290646 L185.403438,9.8854921 L185.403438,19.9443662 L185.398284,20.3008159 C185.305721,23.4975536 183.972163,26.383199 181.862561,28.4928008 C179.674826,30.680536 176.652498,32.0336783 173.314126,32.0336783 L173.314126,32.0336783 L75.4343945,32.0336783 L75.0779448,32.0285241 C71.8812071,31.9359608 68.9955617,30.6024026 66.8859599,28.4928008 C64.6982247,26.3050656 63.3450824,23.2827376 63.3450824,19.9443662 L63.3450824,19.9443662 L63.3525685,9.60187518 Z" id="screen-frame" stroke-opacity="0.03" stroke="#000000" stroke-width="1.45654363" fill="url(#linearGradient-6)"></path>
                <g id="sensor-camera" opacity="0.6" transform="translate(108.352280, 14.992118)">
                    <g id="Group" opacity="0.75" transform="translate(43.696309, 0.000000)">
                        <g id="Oval">
                            <use fill="#BFC0C5" fill-rule="evenodd" xlink:href="#path-7"></use>
                            <use fill="black" fill-opacity="1" filter="url(#filter-8)" xlink:href="#path-7"></use>
                            <circle stroke-opacity="0.568331069" stroke="#7D7D7D" stroke-width="0.5" cx="2.62177853" cy="2.62177853" r="2.87177853"></circle>
                        </g>
                    </g>
                    <g id="Rectangle-2">
                        <use fill="#BFC0C5" fill-rule="evenodd" xlink:href="#path-9"></use>
                        <use fill="black" fill-opacity="1" filter="url(#filter-10)" xlink:href="#path-9"></use>
                        <rect stroke-opacity="0.568331069" stroke="#7D7D7D" stroke-width="0.5" x="-0.25" y="0.915234902" width="29.6308725" height="3.41308725" rx="1.70654363"></rect>
                    </g>
                </g>
            </g>
        </g>
    </g>
</svg>