<?xml version="1.0" standalone="no"?>
<!DOCTYPE svg PUBLIC "-//W3C//DTD SVG 20010904//EN"
 "http://www.w3.org/TR/2001/REC-SVG-20010904/DTD/svg10.dtd">
<svg version="1.0" xmlns="http://www.w3.org/2000/svg"
 width="319.000000pt" height="319.000000pt" viewBox="0 0 319.000000 319.000000"
 preserveAspectRatio="xMidYMid meet">
<metadata>
Created by potrace 1.11, written by Peter Selinger 2001-2013
</metadata>
<g transform="translate(0.000000,319.000000) scale(0.100000,-0.100000)"
fill="#000000" stroke="none">
<path d="M1454 2949 c-10 -12 -30 -25 -43 -30 -15 -6 -21 -15 -17 -24 3 -8 2
-16 -2 -16 -46 -7 -68 -6 -86 6 -30 22 -49 20 -37 -4 9 -15 7 -20 -11 -24 -28
-8 -34 -2 -19 17 13 16 7 36 -10 36 -6 0 -16 -15 -24 -32 -18 -44 -25 -50 -43
-35 -13 10 -15 9 -10 -4 12 -31 -8 -42 -82 -43 -58 -1 -74 -5 -82 -20 -6 -10
-19 -27 -29 -37 -11 -11 -19 -25 -19 -32 0 -7 -13 -29 -30 -47 -16 -18 -30
-37 -30 -40 0 -4 -13 -5 -30 -2 -37 5 -38 -7 -4 -39 38 -35 48 -57 33 -75 -6
-8 -20 -14 -31 -14 -11 0 -22 -9 -25 -20 -3 -12 -14 -20 -27 -20 -32 0 -66
-11 -66 -21 0 -5 7 -9 15 -9 8 0 15 -4 15 -10 0 -5 -5 -10 -11 -10 -6 0 -9
-10 -7 -22 2 -13 9 -22 16 -21 16 4 15 -19 -3 -54 -30 -59 -45 -99 -44 -123 1
-46 -8 -77 -29 -100 -15 -16 -20 -32 -17 -59 2 -21 -1 -44 -5 -51 -5 -8 -6
-19 -1 -25 13 -19 43 -114 38 -122 -3 -5 -1 -40 4 -78 6 -39 13 -122 16 -185
4 -83 9 -117 19 -123 8 -4 14 -19 14 -32 0 -13 3 -25 8 -27 4 -1 19 -29 35
-61 16 -34 33 -57 40 -54 7 2 13 25 15 53 1 27 7 87 13 134 6 47 13 126 15
175 2 50 8 101 13 115 5 14 15 46 21 72 7 26 19 53 26 59 8 6 14 19 14 29 0
10 7 23 15 30 8 7 15 18 15 25 0 8 5 15 11 17 6 2 13 23 15 47 1 24 4 44 6 46
2 1 24 5 50 8 26 3 56 11 67 16 28 15 28 15 35 -23 6 -31 35 -76 50 -76 3 0
30 22 58 49 93 86 197 167 227 175 108 31 152 37 207 27 32 -6 79 -11 106 -11
26 0 48 -4 48 -10 0 -5 5 -10 10 -10 17 0 92 -79 85 -90 -6 -9 28 -50 43 -50
4 0 12 -15 18 -32 25 -72 40 -103 52 -111 6 -4 12 -19 12 -33 0 -17 4 -23 12
-18 7 5 8 3 3 -6 -4 -7 -2 -15 4 -19 6 -4 9 -15 5 -24 -3 -9 -11 -14 -16 -11
-6 4 -5 -2 1 -14 10 -18 6 -52 -6 -52 -2 0 -17 7 -33 15 -22 11 -58 14 -172
10 -172 -5 -165 -4 -171 -27 -4 -14 4 -25 26 -39 47 -29 73 -33 151 -23 57 7
77 6 101 -6 17 -8 30 -19 31 -25 1 -13 -27 -40 -43 -41 -38 -3 -42 -5 -37 -19
7 -16 -1 -17 -123 -20 -45 -1 -68 -7 -83 -20 -28 -25 -25 -35 10 -35 17 0 30
5 30 10 0 6 7 10 16 10 10 0 14 -6 10 -15 -5 -15 -5 -15 89 -21 17 -1 41 -6
54 -11 24 -10 24 -10 -10 -22 -19 -7 -45 -15 -59 -17 -34 -7 -38 -14 -9 -15
13 0 38 -2 54 -4 46 -4 105 14 132 41 13 13 35 27 49 30 18 5 24 12 21 24 -4
15 0 16 32 8 34 -9 76 -48 51 -48 -16 0 -11 -30 6 -37 11 -4 14 -13 8 -32 -3
-14 -8 -50 -10 -80 -1 -30 -8 -57 -14 -61 -8 -5 -11 -41 -10 -106 3 -115 8
-156 20 -149 5 3 7 -7 6 -22 -2 -16 0 -38 5 -50 6 -15 5 -23 -2 -23 -7 0 -9
-9 -6 -21 8 -29 -5 -57 -47 -104 -20 -22 -34 -46 -31 -52 2 -7 1 -13 -3 -13
-13 0 -83 -70 -78 -78 3 -4 -9 -9 -25 -10 -28 -2 -39 14 -22 32 4 4 9 18 10
32 l4 26 -31 -32 c-16 -17 -30 -34 -30 -39 0 -4 -15 -24 -32 -43 -59 -63 -93
-103 -90 -106 6 -6 -105 -92 -143 -111 -58 -29 -179 -34 -272 -12 -40 9 -78
22 -85 29 -7 7 -17 12 -23 12 -5 0 -27 16 -49 35 -21 19 -47 35 -57 35 -10 0
-19 5 -19 11 0 5 -4 7 -10 4 -5 -3 -10 -1 -10 5 0 6 -12 16 -28 23 -15 6 -39
24 -54 39 -15 16 -33 28 -39 28 -7 0 -21 7 -31 17 -16 14 -18 14 -18 0 0 -8 6
-22 13 -29 22 -25 37 -57 43 -98 5 -30 11 -40 25 -40 11 0 19 -4 19 -10 0 -5
-7 -7 -15 -4 -9 4 -15 0 -15 -9 0 -10 7 -13 19 -10 18 4 81 -29 112 -59 16
-16 46 -30 72 -33 11 -1 22 -7 26 -13 4 -6 16 -13 26 -15 11 -2 31 -9 45 -15
14 -6 47 -18 74 -28 26 -10 54 -24 62 -31 9 -9 14 -10 14 -3 0 7 6 6 15 -4 8
-8 15 -22 15 -31 0 -8 8 -19 18 -22 20 -8 42 -35 36 -45 -3 -4 3 -16 13 -27
13 -15 19 -17 25 -8 5 8 8 6 8 -6 0 -12 6 -17 18 -15 11 2 25 -2 33 -8 8 -6
46 -18 84 -27 79 -18 126 -13 260 25 l80 23 -2 50 c-11 305 -8 327 68 399 40
38 67 76 89 123 17 37 35 76 41 85 5 10 9 29 9 43 0 14 4 25 9 25 5 0 9 12 8
27 0 51 3 65 15 61 16 -6 89 34 99 52 4 8 19 56 34 105 15 50 30 97 32 105 3
8 7 25 9 38 1 13 8 30 15 38 15 18 14 129 -2 186 -5 22 -7 52 -4 68 4 18 0 40
-10 60 -10 19 -13 40 -9 53 4 12 6 37 6 55 -1 26 3 32 18 32 21 0 27 24 10 35
-6 4 -8 15 -5 25 3 10 2 21 -4 24 -12 8 -2 46 12 46 16 0 57 50 57 71 0 10 5
19 11 19 6 0 8 9 4 20 -4 12 -1 28 7 37 20 24 17 66 -6 85 -12 10 -17 17 -13
18 4 0 -2 10 -14 23 -40 41 -80 110 -68 118 7 4 8 13 1 25 -5 11 -12 32 -16
48 l-7 29 51 -5 c42 -4 50 -3 46 9 -4 8 -6 17 -6 19 0 2 -9 4 -19 4 -11 0 -23
5 -27 12 -5 7 -3 8 6 3 8 -5 11 -3 8 6 -3 8 -24 21 -47 30 -23 8 -46 20 -49
26 -4 6 -18 13 -32 14 -17 3 -24 9 -22 21 2 11 -5 18 -20 20 -17 2 -22 9 -20
27 2 18 -1 22 -15 17 -13 -5 -11 0 6 18 14 15 30 26 37 26 7 0 16 5 20 11 5 9
-9 10 -51 4 -49 -6 -57 -5 -52 8 3 9 -1 18 -9 21 -8 3 -14 12 -14 20 0 29 -41
110 -68 132 -14 13 -40 29 -57 36 -16 6 -43 26 -60 44 -61 64 -158 112 -141
69 3 -8 1 -15 -4 -15 -6 0 -10 -7 -10 -15 0 -8 4 -15 10 -15 11 0 1 -32 -14
-42 -6 -4 -41 -8 -77 -8 -48 0 -70 4 -79 15 -7 9 -19 14 -27 11 -8 -3 -27 8
-43 24 -16 17 -36 30 -45 30 -9 0 -43 9 -76 20 -33 12 -69 18 -79 15 -11 -4
-26 2 -38 15 l-19 20 -19 -21z m169 -73 c12 -10 15 -16 7 -21 -6 -4 -18 1 -25
11 -13 18 -14 17 -9 -8 2 -16 1 -28 -4 -28 -8 0 -32 43 -32 55 0 11 46 3 63
-9z m377 -46 c0 -5 -2 -10 -4 -10 -3 0 -8 5 -11 10 -3 6 -1 10 4 10 6 0 11 -4
11 -10z"/>
<path d="M1070 1795 c-7 -8 -18 -15 -25 -15 -6 0 -20 -9 -30 -20 -10 -11 -24
-20 -31 -20 -14 0 -30 -38 -20 -48 4 -3 50 3 104 13 53 11 102 18 107 16 6 -2
52 -5 103 -7 97 -4 122 4 122 40 0 19 -12 22 -160 41 -143 18 -155 18 -170 0z"/>
<path d="M1300 1604 c-30 -16 -175 -19 -165 -4 11 17 -46 -1 -78 -24 l-28 -20
38 -14 c21 -7 54 -12 73 -11 19 1 70 -1 113 -6 75 -7 137 4 137 25 0 20 -13
40 -26 40 -7 0 -11 6 -8 13 6 17 -25 18 -56 1z"/>
<path d="M1643 1598 c4 -10 2 -18 -2 -18 -14 0 -18 -77 -5 -95 12 -17 48 -10
37 8 -3 5 -7 30 -8 54 -1 24 -8 49 -15 56 -10 10 -12 9 -7 -5z"/>
<path d="M1640 1317 c0 -23 11 -47 22 -47 14 0 5 53 -9 58 -7 2 -13 -3 -13
-11z"/>
<path d="M1730 1210 c0 -17 -7 -20 -51 -20 -43 0 -57 -5 -85 -30 -28 -24 -41
-29 -74 -26 -22 2 -51 13 -66 25 -28 22 -60 27 -82 13 -17 -11 -5 -41 16 -40
31 1 74 -11 91 -25 9 -8 30 -18 46 -22 17 -5 37 -10 45 -12 30 -8 162 -3 180
7 44 23 33 149 -12 150 -5 0 -8 -9 -8 -20z"/>
<path d="M1173 1147 c-43 -33 -59 -77 -28 -77 8 0 15 4 15 8 0 5 10 19 22 33
12 13 30 34 41 47 31 34 0 27 -50 -11z"/>
<path d="M1859 1016 c-2 -3 -43 -6 -89 -7 -47 -1 -89 -4 -95 -8 -5 -3 -23 -7
-40 -8 -16 -1 -52 -5 -78 -9 -59 -8 -44 -24 23 -24 26 0 51 -5 58 -12 8 -8 15
-8 27 2 13 11 18 11 24 1 5 -7 19 -11 32 -9 20 2 24 -1 24 -22 0 -18 -5 -25
-17 -24 -10 1 -18 -2 -18 -7 0 -5 -8 -9 -17 -10 -15 0 -15 -2 2 -8 11 -5 23
-7 28 -4 4 2 10 -3 13 -11 3 -9 14 -16 24 -16 20 0 34 26 23 42 -3 7 -1 8 5 4
11 -7 142 79 142 92 -1 18 -20 34 -33 29 -8 -3 -19 -1 -24 4 -5 5 -11 7 -14 5z"/>
<path d="M1220 995 c0 -17 58 -74 77 -75 6 0 14 9 18 19 8 26 39 36 98 32 26
-2 47 1 47 6 0 14 -85 30 -167 32 -60 2 -73 -1 -73 -14z"/>
<path d="M1043 182 c-11 -22 -17 -46 -13 -56 5 -16 8 -15 17 10 13 34 25 84
20 84 -2 0 -12 -17 -24 -38z"/>
</g>
</svg>
